<svg id="Ebene_1" data-name="Ebene 1" xmlns="http://www.w3.org/2000/svg" viewBox="0 0 390.22 35.62"><defs><style>.cls-1{fill:#004e9e;stroke:#004e9e;stroke-miterlimit:3.86;stroke-width:0.08px;}.cls-2{fill:#fff;}.cls-3,.cls-4{fill:#1a1a18;}.cls-4,.cls-5{fill-rule:evenodd;}.cls-5{fill:#e30717;}.cls-6{fill:#606061;}</style></defs><polygon class="cls-1" points="19.22 35.55 0.07 2.13 38.27 2.13 19.22 35.55 19.22 35.55"/><path class="cls-2" d="M231.9,305.06H229v4.48h-2.86v-4.48h-2.93l-1.51-2.67h4.44V299.2c-2-.05-4.26-.05-6.24,0l-1.55-2.75h7.79v-3.16h-9.63l-1.45-2.59h11.08V288h-1.8l3.27-3.25,3.19,3.25H229v2.74h11.08c-.49.86-.91,1.75-1.45,2.6H229v3.16h7.75l-1.54,2.74H229v3.19h4.36l-1.5,2.67Z" transform="translate(-208.43 -281.78)"/><path class="cls-3" d="M396.74,291a7.19,7.19,0,0,1,.41,2.89H390a2.19,2.19,0,0,0-.93-1.27,3.21,3.21,0,0,0-3.08.26c-.24.34-.65.69-.39,1.14,0,.62.76.68,1.19.87,3.27,1.27,8.27.87,9.18,5.28a7.85,7.85,0,0,1-3.42,8.18c-3.72,2.4-9.69,2.38-13.52.26a6,6,0,0,1-2.67-6.1h7a1.92,1.92,0,0,0,.39,1.49,3.72,3.72,0,0,0,3.56.73,2.43,2.43,0,0,0,1.46-1,1.37,1.37,0,0,0,0-1.26c-1.35-1.2-3.62-1.08-5.35-1.81s-4.05-1.72-4.69-3.88a7.55,7.55,0,0,1,2.16-7.1c2.64-2.22,6.33-2.74,10.17-2.14,2.17.37,4.82,1.15,5.62,3.47Z" transform="translate(-208.43 -281.78)"/><path class="cls-3" d="M275.33,287.73c-.88,4.86-2,9.6-2.88,14.45a2.13,2.13,0,0,0,.74,1.82c.82.78,2.21.63,3.27.47a4.56,4.56,0,0,0,2.61-3.48c1.05-4.39,1.93-8.85,2.88-13.26h6.76c-1.32,5.8-2,11.86-4,17.41-2,4.4-7.1,5.11-11.71,4.81-2.92-.39-6.13-1.25-7.36-4.22-.91-3,.48-5.88.87-8.76l2.14-9.24Z" transform="translate(-208.43 -281.78)"/><path class="cls-3" d="M303,301.25s.07.09.13.07c.95-4.5,1.6-9.11,2.55-13.59h6.1l-1.21,5.95-2.42,11.79-.8,4.07h-7c-1.26-4.48-2.54-9.09-3.81-13.65h-.07c-.84,4.54-1.79,9-2.53,13.6h-6.36c1.45-7.33,3.22-14.43,4.69-21.76h7L303,301.25Z" transform="translate(-208.43 -281.78)"/><path class="cls-3" d="M265.34,287.73c-1.07,5.54-2.34,11-3.47,16.53-.63,2.14-2.1,4.43-4.41,5.1-3.53,1-8,1-10.71-1.55-1.95-1.91-1.63-5.05-1.21-7.56h6.9c0,1.26-1.06,2.69,0,3.81a1.77,1.77,0,0,0,1.67.33c1-.41,1.23-1.6,1.53-2.55l2.88-13.57.13-.54Z" transform="translate(-208.43 -281.78)"/><path class="cls-3" d="M321.05,287.73c-.32,2.42-1,4.78-1.21,7.16l7.29-7.16h8.44l-9.84,9.09c1.81,4.35,4.11,8.5,6,12.8h-7.31c-1.17-2.74-2.57-5.38-3.74-8.11a32.89,32.89,0,0,0-2.75,2.34c-.28,2-.76,3.85-1.13,5.77h-6.16l1.4-7.29,2.75-13.8.13-.8Z" transform="translate(-208.43 -281.78)"/><path class="cls-3" d="M355.11,287.7c-.37,1.85-.71,3.77-1.14,5.59H342.46a23.47,23.47,0,0,0-.6,2.68H352c-.25,1.73-.73,3.36-1,5.07H340.79l-.58,3h12.15c-.32,1.84-.78,3.76-1.06,5.62H332.48c.11-.84.32-1.73.47-2.61l2.95-13.87c.5-1.76.6-3.68,1.21-5.41l18,0Z" transform="translate(-208.43 -281.78)"/><path class="cls-4" d="M371.3,287.73a5.88,5.88,0,0,1,5.1,3.74,6,6,0,0,1-1.08,5.76,9.54,9.54,0,0,1-2.94,2.14,3.37,3.37,0,0,1,2,2.21c.26,2.29-.19,4.6-.13,7,.11.37,0,.8.33,1.08h-7c-.72-1.79,0-3.83-.06-5.77a1.66,1.66,0,0,0-.94-1.39c-1.34-.5-3-.19-4.56-.28l-1.52,7.44h-6.9l2.6-12.65c.73-3,1.27-6.22,1.95-9.27l13.11,0Zm-2.4,5.41a2,2,0,0,1,.73,1.34,2.67,2.67,0,0,1-1.47,2.21c-1.45.62-3.31.28-5,.39l.86-4.33a15.91,15.91,0,0,1,4.83.39Z" transform="translate(-208.43 -281.78)"/><g id="logotype"><path id="logotype-b-47" class="cls-5" d="M513.16,297.9a4.77,4.77,0,0,0,3-4.49c0-4-2.86-6-6.8-6H499.09v21.95H510.3c3.45,0,6.83-2.42,6.83-6.11A5.4,5.4,0,0,0,513.16,297.9Zm-8.69-6h4a1.94,1.94,0,0,1,2.07,1.83,1,1,0,0,1,0,.24,2,2,0,0,1-2.08,2h-4Zm4,12.8h-4v-4.32h3.9c2,0,2.9.87,2.9,2.14C511.3,304.14,510.13,304.73,508.51,304.73Z" transform="translate(-208.43 -281.78)"/><path id="logotype-o-47" class="cls-5" d="M529,286.82c-6.35,0-10.07,5.07-10.07,11.49S522.65,309.8,529,309.8s10.07-5,10.07-11.49S535.38,286.82,529,286.82Zm0,17.73c-3.11,0-4.66-2.79-4.66-6.24s1.55-6.21,4.66-6.21,4.69,2.79,4.69,6.21S532.1,304.55,529,304.55Z" transform="translate(-208.43 -281.78)"/><path id="logotype-s-47" class="cls-5" d="M550.77,296l-.76-.17c-1.86-.38-3.35-.87-3.35-2.21s1.42-2,2.66-2a6.21,6.21,0,0,1,4.49,2l3.41-3.38a10.22,10.22,0,0,0-8-3.45c-4.63,0-8.15,2.58-8.15,6.9,0,3.93,2.83,5.86,6.28,6.59l.76.17c2.87.59,3.94,1,3.94,2.41s-1.18,2.18-3,2.18a6.89,6.89,0,0,1-5.56-2.83L540,305.66c1.93,2.31,4.38,4.1,9.11,4.1,4.1,0,8.49-2.34,8.49-7.14C557.7,297.62,553.91,296.65,550.77,296Z" transform="translate(-208.43 -281.78)"/><path id="logotype-c-47" class="cls-5" d="M569.92,304.55c-2.42,0-4.94-2-4.94-6.38,0-3.9,2.35-6.07,4.8-6.07a4.25,4.25,0,0,1,4,2.45l4.41-2.93c-2.2-3.35-4.83-4.76-8.45-4.76-6.62,0-10.21,5.14-10.21,11.35,0,6.52,4,11.62,10.14,11.62,4.35,0,6.42-1.52,8.66-4.76l-4.45-3C573,303.52,572,304.55,569.92,304.55Z" transform="translate(-208.43 -281.78)"/><polygon id="logotype-h-47" class="cls-5" points="384.46 5.59 384.46 13.66 377.8 13.66 377.8 5.59 372.04 5.59 372.04 27.53 377.8 27.53 377.8 18.87 384.46 18.87 384.46 27.53 390.22 27.53 390.22 5.59 384.46 5.59"/></g><g id="symbol"><path class="cls-6" d="M465.9,281.78a16.63,16.63,0,1,0,16.63,16.63A16.63,16.63,0,0,0,465.9,281.78Zm0,31.71A15.08,15.08,0,1,1,481,298.41a15.08,15.08,0,0,1-15.07,15.08Z" transform="translate(-208.43 -281.78)"/><path class="cls-6" d="M472.76,288h-1.14v5.69H460.2V288H459a12.44,12.44,0,0,0-3.53,17.24A12.62,12.62,0,0,0,459,308.8h1.17v-5.69h11.42v5.69h1.14a12.44,12.44,0,0,0,3.53-17.24A12.24,12.24,0,0,0,472.76,288Zm-14.14,18.53a10.89,10.89,0,0,1-.91-15.38,9.77,9.77,0,0,1,.91-.91Zm13-5H460.2v-6.25h11.42Zm1.56,5v-3.45h0v-9.35h0v-3.45A10.94,10.94,0,0,1,474,305.7,10.57,10.57,0,0,1,473.18,306.52Z" transform="translate(-208.43 -281.78)"/></g></svg>