<?xml version="1.0" encoding="UTF-8"?>
<svg xmlns="http://www.w3.org/2000/svg" viewBox="0 0 192 192"><path d="M80 68h-8v-8h8v8zm8 0h-8v8H64v8h16v8h8v8h8v-8h-8V68h15.855v-8H88V40H72v8h8v12h8v8zm8-36H80v-8h16v-8h24v31.999L112 48V60h-8V48h8v-8H96v-8zm8 0h8v-8h-8v8zm-64.006 88H16V96h8v-8h-8v-8h12v-8h8v8h16v8H32v8h7.994v8h8v-8H56v8h-7.994v8h-8.012v8zM32 104h-8v8h8v-8zm48 24h8v-8h8v-12h-8v12h-8v-20H64v12h-8v8h16v8h8zm88-52h-8v8h8v-8zm-8 16v8h8v-8h-8zm8 16h8v-8h-8v8zm-16 24v-8h-8v-8h-8v12h-8v8h8v4h16v12h8v-8h8v-20h-8v8h-8zm0-60h-8v44h8v8h8v-24h-8V72zm-32 12h8v-8h8v8h-8v32h-8v-8h-8v16h8v12h-12v-8H96v-8h8v-12h-8v-8h8v-8h-8V76h8v8h8v-8h8v8zm0 8h-8v8h8v-8zm24 68v8h8v8h16v-8h-8v-8h-8v-8h-8v8zm-8-8h-16v-8h-8v8h-12v-16H76v40h28v-8H84v-24h8v16h12v8h8v8h8v-8h8v8h16v-8h-8v-16zm-24-84h8v-8h-8v8zm-96 60h48v48H16v-48zm8 40h32v-32H24v32zm8-8h16v-16H32v16zm32-96H16V16h48v48zm-8-40H24v32h32V24zm-8 8H32v16h16V32zm128-16v48h-48V16h48zm-8 8h-32v32h32V24zm-8 8h-16v16h16V32z" style="fill: #ffffff;"/></svg>
